<svg xmlns="http://www.w3.org/2000/svg" width="512" height="512" viewBox="0 0 512 512"><circle cx="256" cy="254" r="183" fill="#DE6754" opacity=".14"/><polygon points="256.0,81.0 391.3,146.1 424.7,292.5 331.1,409.9 180.9,409.9 87.3,292.5 120.7,146.1" fill="#9D3525" stroke="#F5D1CC" stroke-width="8" stroke-linejoin="round"/><polygon points="256,254 256.0,81.0 391.3,146.1" fill="#F5D1CC" opacity=".82"/><polygon points="256,254 391.3,146.1 424.7,292.5" fill="#DE6754" opacity=".82"/><polygon points="256,254 424.7,292.5 331.1,409.9" fill="#9D3525" opacity=".82"/><polygon points="256,254 331.1,409.9 180.9,409.9" fill="#F5D1CC" opacity=".82"/><polygon points="256,254 180.9,409.9 87.3,292.5" fill="#DE6754" opacity=".82"/><polygon points="256,254 87.3,292.5 120.7,146.1" fill="#9D3525" opacity=".82"/><polygon points="256,254 120.7,146.1 256.0,81.0" fill="#F5D1CC" opacity=".82"/><polygon points="256.0,128.0 354.5,175.4 378.8,282.0 310.7,367.5 201.3,367.5 133.2,282.0 157.5,175.4" fill="none" stroke="#F5D1CC" stroke-width="8" opacity=".85"/><polygon points="256.0,162.0 327.9,196.6 345.7,274.5 295.9,336.9 216.1,336.9 166.3,274.5 184.1,196.6" fill="#F5D1CC" opacity=".96"/><polygon points="256.0,215.0 286.5,229.7 294.0,262.7 272.9,289.1 239.1,289.1 218.0,262.7 225.5,229.7" fill="white" opacity=".86"/><circle cx="256.0" cy="30.0" r="6" fill="#F5D1CC" opacity=".9"/><circle cx="414.4" cy="95.6" r="6" fill="#F5D1CC" opacity=".9"/><circle cx="480.0" cy="254.0" r="6" fill="#F5D1CC" opacity=".9"/><circle cx="414.4" cy="412.4" r="6" fill="#F5D1CC" opacity=".9"/><circle cx="256.0" cy="478.0" r="6" fill="#F5D1CC" opacity=".9"/><circle cx="97.6" cy="412.4" r="6" fill="#F5D1CC" opacity=".9"/><circle cx="32.0" cy="254.0" r="6" fill="#F5D1CC" opacity=".9"/><circle cx="97.6" cy="95.6" r="6" fill="#F5D1CC" opacity=".9"/></svg>
