<svg xmlns="http://www.w3.org/2000/svg" width="512" height="512" viewBox="0 0 512 512"><circle cx="256" cy="254" r="183" fill="#B754DE" opacity=".14"/><polygon points="256.0,81.0 405.8,167.5 405.8,340.5 256.0,427.0 106.2,340.5 106.2,167.5" fill="#7B259D" stroke="#E9CCF5" stroke-width="8" stroke-linejoin="round"/><polygon points="256,254 256.0,81.0 405.8,167.5" fill="#E9CCF5" opacity=".82"/><polygon points="256,254 405.8,167.5 405.8,340.5" fill="#B754DE" opacity=".82"/><polygon points="256,254 405.8,340.5 256.0,427.0" fill="#7B259D" opacity=".82"/><polygon points="256,254 256.0,427.0 106.2,340.5" fill="#E9CCF5" opacity=".82"/><polygon points="256,254 106.2,340.5 106.2,167.5" fill="#B754DE" opacity=".82"/><polygon points="256,254 106.2,167.5 256.0,81.0" fill="#7B259D" opacity=".82"/><polygon points="256.0,128.0 365.1,191.0 365.1,317.0 256.0,380.0 146.9,317.0 146.9,191.0" fill="none" stroke="#E9CCF5" stroke-width="8" opacity=".85"/><polygon points="256.0,168.0 330.5,211.0 330.5,297.0 256.0,340.0 181.5,297.0 181.5,211.0" fill="#E9CCF5" opacity=".96"/><polygon points="256.0,218.0 287.2,236.0 287.2,272.0 256.0,290.0 224.8,272.0 224.8,236.0" fill="white" opacity=".86"/><circle cx="256.0" cy="30.0" r="6" fill="#E9CCF5" opacity=".9"/><circle cx="469.0" cy="184.8" r="6" fill="#E9CCF5" opacity=".9"/><circle cx="387.7" cy="435.2" r="6" fill="#E9CCF5" opacity=".9"/><circle cx="124.3" cy="435.2" r="6" fill="#E9CCF5" opacity=".9"/><circle cx="43.0" cy="184.8" r="6" fill="#E9CCF5" opacity=".9"/></svg>
