<svg xmlns="http://www.w3.org/2000/svg" width="512" height="512" viewBox="0 0 512 512"><circle cx="256" cy="254" r="183" fill="#91DE54" opacity=".14"/><polygon points="256.0,81.0 378.3,131.7 429.0,254.0 378.3,376.3 256.0,427.0 133.7,376.3 83.0,254.0 133.7,131.7" fill="#5A9D25" stroke="#DEF5CC" stroke-width="8" stroke-linejoin="round"/><polygon points="256,254 256.0,81.0 378.3,131.7" fill="#DEF5CC" opacity=".82"/><polygon points="256,254 378.3,131.7 429.0,254.0" fill="#91DE54" opacity=".82"/><polygon points="256,254 429.0,254.0 378.3,376.3" fill="#5A9D25" opacity=".82"/><polygon points="256,254 378.3,376.3 256.0,427.0" fill="#DEF5CC" opacity=".82"/><polygon points="256,254 256.0,427.0 133.7,376.3" fill="#91DE54" opacity=".82"/><polygon points="256,254 133.7,376.3 83.0,254.0" fill="#5A9D25" opacity=".82"/><polygon points="256,254 83.0,254.0 133.7,131.7" fill="#DEF5CC" opacity=".82"/><polygon points="256,254 133.7,131.7 256.0,81.0" fill="#91DE54" opacity=".82"/><polygon points="256.0,128.0 345.1,164.9 382.0,254.0 345.1,343.1 256.0,380.0 166.9,343.1 130.0,254.0 166.9,164.9" fill="none" stroke="#DEF5CC" stroke-width="8" opacity=".85"/><polygon points="256.0,156.0 325.3,184.7 354.0,254.0 325.3,323.3 256.0,352.0 186.7,323.3 158.0,254.0 186.7,184.7" fill="#DEF5CC" opacity=".96"/><polygon points="256.0,212.0 285.7,224.3 298.0,254.0 285.7,283.7 256.0,296.0 226.3,283.7 214.0,254.0 226.3,224.3" fill="white" opacity=".86"/><circle cx="256.0" cy="30.0" r="7" fill="#DEF5CC" opacity=".9"/><circle cx="377.1" cy="65.6" r="7" fill="#DEF5CC" opacity=".9"/><circle cx="459.8" cy="160.9" r="7" fill="#DEF5CC" opacity=".9"/><circle cx="477.7" cy="285.9" r="7" fill="#DEF5CC" opacity=".9"/><circle cx="425.3" cy="400.7" r="7" fill="#DEF5CC" opacity=".9"/><circle cx="319.1" cy="468.9" r="7" fill="#DEF5CC" opacity=".9"/><circle cx="192.9" cy="468.9" r="7" fill="#DEF5CC" opacity=".9"/><circle cx="86.7" cy="400.7" r="7" fill="#DEF5CC" opacity=".9"/><circle cx="34.3" cy="285.9" r="7" fill="#DEF5CC" opacity=".9"/><circle cx="52.2" cy="160.9" r="7" fill="#DEF5CC" opacity=".9"/><circle cx="134.9" cy="65.6" r="7" fill="#DEF5CC" opacity=".9"/></svg>
